<?xml version="1.0" encoding="UTF-8"?>
<svg id="Layer_1" data-name="Layer 1" xmlns="http://www.w3.org/2000/svg" xmlns:xlink="http://www.w3.org/1999/xlink" viewBox="0 0 587 707">
  <defs>
    <style>
      .cls-1 {
        letter-spacing: 0em;
      }

      .cls-2 {
        letter-spacing: -.01em;
      }

      .cls-3, .cls-4, .cls-5, .cls-6 {
        stroke-miterlimit: 10;
      }

      .cls-3, .cls-5 {
        fill: #fff;
      }

      .cls-3, .cls-5, .cls-6 {
        stroke: #ccc;
        stroke-width: 5px;
      }

      .cls-7 {
        clip-path: url(#clippath);
      }

      .cls-8, .cls-9, .cls-10, .cls-11, .cls-12, .cls-13, .cls-14, .cls-15, .cls-16, .cls-17 {
        stroke-width: 0px;
      }

      .cls-8, .cls-6 {
        fill: none;
      }

      .cls-18 {
        letter-spacing: 0em;
      }

      .cls-19 {
        font-size: 18px;
      }

      .cls-19, .cls-20 {
        font-family: GroldRoundedSlim-Bold, 'Grold Rounded Slim';
        font-weight: 700;
      }

      .cls-21 {
        letter-spacing: .01em;
      }

      .cls-4 {
        fill: #e46c50;
        stroke: #000;
        stroke-width: 2px;
      }

      .cls-22 {
        letter-spacing: 0em;
      }

      .cls-23 {
        clip-path: url(#clippath-1);
      }

      .cls-24 {
        clip-path: url(#clippath-2);
      }

      .cls-25 {
        letter-spacing: 0em;
      }

      .cls-5, .cls-6 {
        stroke-linecap: round;
      }

      .cls-26 {
        letter-spacing: 0em;
      }

      .cls-27 {
        letter-spacing: 0em;
      }

      .cls-28 {
        letter-spacing: .02em;
      }

      .cls-29 {
        letter-spacing: 0em;
      }

      .cls-20 {
        font-size: 36px;
      }

      .cls-30 {
        letter-spacing: 0em;
      }

      .cls-31 {
        letter-spacing: -.02em;
      }

      .cls-32 {
        isolation: isolate;
      }

      .cls-33 {
        letter-spacing: 0em;
      }

      .cls-34 {
        letter-spacing: 0em;
      }

      .cls-10 {
        fill: #f9e426;
      }

      .cls-11 {
        fill: #4d4d4d;
      }

      .cls-12 {
        fill: #2e3192;
      }

      .cls-13 {
        fill: #ccc;
      }

      .cls-14 {
        fill: #b3b3b3;
      }

      .cls-15 {
        fill: #666;
      }

      .cls-16 {
        fill: #999;
      }

      .cls-17 {
        fill: #009245;
      }

      .cls-35 {
        letter-spacing: 0em;
      }
    </style>
    <clipPath id="clippath">
      <polygon class="cls-8" points="195.76 473.47 77.08 401.38 193.73 334.03 312.42 406.12 195.76 473.47"/>
    </clipPath>
    <clipPath id="clippath-1">
      <polygon class="cls-8" points="219.37 393.7 182.26 372.66 207.13 358.3 244.24 379.34 219.37 393.7"/>
    </clipPath>
    <clipPath id="clippath-2">
      <polygon class="cls-8" points="365.81 627.3 464.55 575.48 546.6 617.29 447.86 669.11 365.81 627.3"/>
    </clipPath>
  </defs>
  <g>
    <rect class="cls-9" x="347.36" y="81.5" width="95.14" height="173" rx="21.94" ry="21.94"/>
    <path class="cls-9" d="m420.56,82c11.82,0,21.44,9.62,21.44,21.44v129.12c0,11.82-9.62,21.44-21.44,21.44h-51.26c-11.82,0-21.44-9.62-21.44-21.44V103.44c0-11.82,9.62-21.44,21.44-21.44h51.26m0-1h-51.26c-12.39,0-22.44,10.05-22.44,22.44v129.12c0,12.39,10.05,22.44,22.44,22.44h51.26c12.39,0,22.44-10.05,22.44-22.44V103.44c0-12.39-10.05-22.44-22.44-22.44h0Z"/>
  </g>
  <g>
    <rect class="cls-12" x="354.59" y="99.33" width="80.68" height="131.64"/>
    <path class="cls-9" d="m434.77,99.83v130.64h-79.68V99.83h79.68m1-1h-81.68v132.64h81.68V98.83h0Z"/>
  </g>
  <g>
    <ellipse class="cls-15" cx="395.11" cy="242.7" rx="6.91" ry="6.81"/>
    <path class="cls-9" d="m395.11,236.39c3.53,0,6.41,2.83,6.41,6.31s-2.88,6.31-6.41,6.31-6.41-2.83-6.41-6.31,2.88-6.31,6.41-6.31m0-1c-4.09,0-7.41,3.27-7.41,7.31s3.32,7.31,7.41,7.31,7.41-3.27,7.41-7.31-3.32-7.31-7.41-7.31h0Z"/>
  </g>
  <rect class="cls-4" x="356.92" y="102.32" width="76.02" height="125.92" rx="6.06" ry="6.06"/>
  <rect class="cls-5" x="2.5" y="124.5" width="263" height="109" rx="14.74" ry="14.74"/>
  <rect class="cls-3" x="64.5" y="565.5" width="260" height="106" rx="14.45" ry="14.45"/>
  <rect class="cls-5" x="329.5" y="337.5" width="255" height="114" rx="14.74" ry="14.74" transform="translate(914 789) rotate(-180)"/>
  <text class="cls-19" transform="translate(19.5 151.6)"><tspan class="cls-31" x="0" y="0">R</tspan><tspan x="8.77" y="0">etri</tspan><tspan class="cls-30" x="33.73" y="0">e</tspan><tspan x="41.8" y="0">ving and analyzing trust</tspan><tspan class="cls-18" x="209.84" y="0">e</tspan><tspan x="218.07" y="0">d </tspan><tspan class="cls-30" x="0" y="21.6">s</tspan><tspan class="cls-34" x="7.2" y="21.6">o</tspan><tspan class="cls-35" x="15.7" y="21.6">f</tspan><tspan x="21.87" y="21.6">t</tspan><tspan class="cls-2" x="27.95" y="21.6">w</tspan><tspan x="38.79" y="21.6">a</tspan><tspan class="cls-27" x="47.97" y="21.6">r</tspan><tspan x="54.05" y="21.6">e </tspan><tspan class="cls-31" x="65.11" y="21.6">f</tspan><tspan x="70.92" y="21.6">or the existence </tspan><tspan class="cls-34" x="183.42" y="21.6">o</tspan><tspan x="191.91" y="21.6">f and </tspan><tspan x="0" y="43.2">the capabili</tspan><tspan class="cls-28" x="84.15" y="43.2">t</tspan><tspan x="90.5" y="43.2">y </tspan><tspan class="cls-34" x="101.21" y="43.2">o</tspan><tspan x="109.71" y="43.2" xml:space="preserve">f enacting            </tspan><tspan x="0" y="64.8">p</tspan><tspan class="cls-34" x="9.18" y="64.8">o</tspan><tspan x="17.68" y="64.8">te</tspan><tspan class="cls-30" x="31.91" y="64.8">n</tspan><tspan x="40.37" y="64.8">tial i</tspan><tspan class="cls-30" x="72.04" y="64.8">n</tspan><tspan class="cls-31" x="80.5" y="64.8">f</tspan><tspan x="86.31" y="64.8">ormation co</tspan><tspan class="cls-30" x="170.17" y="64.8">n</tspan><tspan x="178.63" y="64.8">t</tspan><tspan class="cls-1" x="184.71" y="64.8">r</tspan><tspan x="190.89" y="64.8">ols</tspan></text>
  <text class="cls-19" transform="translate(76.61 592.28)"><tspan x="0" y="0">Con</tspan><tspan class="cls-30" x="28.19" y="0">s</tspan><tspan x="35.39" y="0">olidating </tspan><tspan class="cls-27" x="102.63" y="0">r</tspan><tspan x="108.72" y="0">esul</tspan><tspan class="cls-21" x="137.12" y="0">t</tspan><tspan x="143.39" y="0">s to i</tspan><tspan class="cls-30" x="175.73" y="0">n</tspan><tspan class="cls-31" x="184.19" y="0">f</tspan><tspan x="190.01" y="0">orm </tspan><tspan x="0" y="21.6">people a</tspan><tspan class="cls-1" x="59.92" y="21.6">r</tspan><tspan x="66.09" y="21.6">ound the </tspan><tspan class="cls-2" x="129.54" y="21.6">w</tspan><tspan x="140.38" y="21.6">orld h</tspan><tspan class="cls-34" x="180.41" y="21.6">o</tspan><tspan x="188.91" y="21.6">w best </tspan><tspan x="0" y="43.2">to a</tspan><tspan class="cls-34" x="26.84" y="43.2">v</tspan><tspan x="34.47" y="43.2">oid dange</tspan><tspan class="cls-22" x="103.97" y="43.2">r</tspan><tspan x="110.14" y="43.2">ous i</tspan><tspan class="cls-30" x="141.96" y="43.2">n</tspan><tspan class="cls-31" x="150.42" y="43.2">f</tspan><tspan x="156.24" y="43.2">ormation </tspan><tspan x="0" y="64.8">co</tspan><tspan class="cls-30" x="16.92" y="64.8">n</tspan><tspan x="25.38" y="64.8">t</tspan><tspan class="cls-1" x="31.46" y="64.8">r</tspan><tspan x="37.64" y="64.8">ols </tspan></text>
  <text class="cls-19" transform="translate(343 364.78)"><tspan x="0" y="0">Unc</tspan><tspan class="cls-34" x="26.41" y="0">o</tspan><tspan class="cls-31" x="34.9" y="0">v</tspan><tspan x="42.44" y="0">ering the existence </tspan><tspan class="cls-2" x="176.65" y="0">o</tspan><tspan x="185.14" y="0">f </tspan><tspan x="0" y="21.6">and analyzing the behavior and </tspan><tspan x="0" y="43.2">i</tspan><tspan class="cls-30" x="4.5" y="43.2">n</tspan><tspan class="cls-31" x="12.96" y="43.2">f</tspan><tspan x="18.77" y="43.2">ormation co</tspan><tspan class="cls-30" x="102.63" y="43.2">n</tspan><tspan x="111.09" y="43.2">t</tspan><tspan class="cls-1" x="117.18" y="43.2">r</tspan><tspan x="123.35" y="43.2">ol capabili</tspan><tspan class="cls-28" x="197.89" y="43.2">t</tspan><tspan x="204.24" y="43.2">y </tspan><tspan class="cls-34" x="0" y="64.8">o</tspan><tspan x="8.5" y="64.8">f n</tspan><tspan class="cls-30" x="26.03" y="64.8">e</tspan><tspan x="34.09" y="64.8">w ha</tspan><tspan class="cls-30" x="65.74" y="64.8">r</tspan><tspan x="71.87" y="64.8">d</tspan><tspan class="cls-2" x="81.05" y="64.8">w</tspan><tspan x="91.89" y="64.8">a</tspan><tspan class="cls-29" x="101.07" y="64.8">r</tspan><tspan class="cls-25" x="107.15" y="64.8">e </tspan><tspan class="cls-27" x="118.21" y="64.8">r</tspan><tspan x="124.29" y="64.8">estrictions</tspan></text>
  <g class="cls-32">
    <g class="cls-7">
      <g>
        <path class="cls-17" d="m238.13,437.8s-.03.05-.05.07l.11.07-.03-.16-.04.02m-18.63,6.38l-.54.31c.13-.01.26-.04.36-.1s.16-.13.18-.21m14.85-8.62s-.02.02-.03.03l.04.02v-.06m-16.04,8.23c-.14.08-.2.19-.19.3,0,0,0,0,0,0l.67-.39v-.02c-.18,0-.35.03-.48.1m14.23-9.41l-.12.07.15.09-.03-.16m-16.89,7.32s-.03.02-.05.04l-.3.17.22.14c.14-.1.18-.22.13-.35m14.34-8.87l-.04.02s-.03.05-.05.07l.11.07-.03-.16m-15.47,8.62h.02s.11-.05.11-.05c-.05.01-.09.03-.14.05m-11.62,6.47c-.33.19-.31.52.05.74s.91.23,1.24.04.32-.52-.04-.74-.92-.24-1.25-.04m25.24-16.21l-.12.07.15.09-.03-.16m-1.91-1.16l-.12.07.15.09-.03-.16m-16.61,7.44s0,0,0,0h0s0,0,0,0m14.54-8.56l.07.04-.02-.08-.06.03m-2.38-1.66l-.03.02s-.05.08-.09.12l.17.1-.05-.24m-1.88-1.1l-.14.08.19.11s.02,0,.03-.01l-.03-.16-.04-.03m-.84-.46s-.06.04-.09.06c.04-.01.07-.02.09-.03.03,0,.05-.01.08-.02l-.06-.03s-.02.01-.03.02m-15.32,8.27s-.03.02-.05.03l-.34.2.21.13c.16-.09.22-.23.17-.36m14.24-8.93s-.04.05-.07.08l.1.06-.03-.14m-14.38,8.13l.03.16c.13.04.25.09.36.15.51.31.51.8,0,1.09-.27.15-.62.23-.97.21l-24.08,13.9,4.52,2.75,24.5-14.26s.09-.07.15-.11.11-.06.17-.08l.28-.16.1.06s.05,0,.07-.01l-.13-.68-1.06-.64.08.38s0,0,.01,0c.21.12.21.32,0,.44l-.69.4c-.2.12-.53.11-.74-.01s-.21-.32-.01-.44l.67-.39-.18-.9-1.18-.71.08.38s0,0,.01,0c.21.12.21.32,0,.44l-.69.4c-.2.12-.53.11-.74-.01s-.21-.32-.01-.44l.67-.39-.18-.9-1.06-.64m-1.03.54l.04.03.2-.11c-.09.02-.17.05-.24.09m13.63-9.78s-.05.06-.09.09l.12.07-.03-.16m-43.23,22.8l18.75,11.56,25.8-14.76c.01-.19.14-.37.38-.51s.53-.2.83-.21l-.1-.52-1.2-.73.08.38s0,0,0,0c.21.13.21.32.01.44l-.69.4c-.2.12-.53.11-.74-.02s-.21-.32,0-.44l.67-.39-.18-.9-1.06-.64.03.17c.13.04.26.09.37.16.51.31.51.8,0,1.09-.25.14-.58.22-.91.21l-9.42,5.44c.21.43.03.91-.54,1.24-.83.48-2.17.45-2.99-.05s-.83-1.29,0-1.77c.57-.33,1.37-.42,2.09-.29l9.55-5.52c.05-.14.17-.28.36-.39.2-.12.45-.18.71-.21l-.12-.61-1.18-.71.08.38s0,0,.01,0c.21.12.21.32,0,.44l-.69.4c-.2.12-.53.11-.74-.01s-.21-.32,0-.44l.66-.38-.18-.91-1.06-.64.08.38s0,0,.01,0c.21.12.21.32,0,.44l-.69.4c-.2.12-.53.11-.74-.01s-.21-.32,0-.44l.66-.38-.18-.91-1.27-.77.04.2c.17.04.32.1.46.18.51.31.52.8,0,1.1-.32.18-.77.25-1.18.19l-25.29,14.72-10.52-6.39m37.94-26.01l-.12.07.15.09-.03-.16m-15.32,8.6l-.26.15c.05-.02.1-.04.15-.06s.08-.06.11-.09m.11-.97l.03.13c.06.03.12.06.17.09.51.31.51.8,0,1.09-.16.1-.36.16-.57.19h.01s-23.09,13.19-23.09,13.19l6.6,4.01,22.95-13.25c.06-.13.17-.25.34-.35.2-.12.46-.19.72-.21l-.12-.6-1.2-.73.08.38s0,0,.01,0c.21.12.21.32,0,.44l-.69.4c-.2.12-.53.11-.74-.01s-.21-.32,0-.44l.66-.38-.18-.91-1.06-.64.08.38s0,0,.01,0c.21.12.21.32,0,.44l-.69.4c-.2.12-.53.11-.74-.01s-.21-.32,0-.44l.66-.38-.18-.91-1.17-.71.08.38s0,0,0,0c.21.12.21.32,0,.44l-.69.4c-.2.12-.53.11-.74-.01s-.21-.32,0-.44l.67-.39-.18-.9-.79-.48c-.1-.06-.19-.12-.28-.19m-1.22.45c-.17.1-.23.24-.17.38.02-.01.03-.03.05-.04l.67-.39v-.06c-.21-.02-.4.02-.55.1m14.3-9.37l-.13.07c.05.03.11.06.16.09l-.03-.16m32.91-28.49l-17.4,10.04,19.14,11.5-22.6,13.36c.07.17.04.36-.1.52l.11.54.11.07s.07-.02.1-.03c.09-.02.18-.03.26-.03l.14-.08c.28-.16.55-.12.65-.1s.35.1.4.34l.19.96.11.07s.07-.02.1-.03c.25-.06.46-.02.58.06l.1.05.05.15c0,.07-.04.14-.11.2l.12.07.26-.15c.28-.16.55-.12.65-.1.1.02.35.1.39.34l.16.8.3.18c.14-.03.27-.02.37,0l.14-.08c.28-.16.56-.12.66-.1.1.02.34.1.39.34l.18.88.2.12s.02,0,.03,0c.14-.04.27-.04.37-.02l.09-.05c.28-.16.55-.13.65-.1.1.02.34.1.39.34l.17.88.2.12s.02,0,.03,0c.09-.02.18-.03.26-.03l.14-.08c.28-.16.55-.13.65-.1.1.02.34.1.39.34l.17.88.2.12s.02,0,.03,0c.25-.06.45-.02.57.06l.1.05.04.15c0,.06-.02.11-.06.16l.13.08.32-.18c.28-.16.55-.13.65-.1.1.02.34.1.39.34l.17.88.2.12s.02,0,.03,0c.03,0,.07-.01.1-.02l.23-.13c.28-.16.55-.13.65-.1.1.02.34.1.39.34l.08.39c.22-.07.47-.1.71-.08l27.6-16.08,2.68-13.21-24.42-14.83m-45.12,1.36l-18.47,10.66-3.87,8.79-26.09,15.06,24.03,14.59,21.49-12.27c-.03-.22.1-.44.38-.6.25-.14.57-.21.9-.21l-.26-1.31h-.32s.07-1.56.07-1.56l.57.02c0-.52.33-1.04,1-1.42l7.89-4.55c1.11-.64,2.81-.72,4.14-.26l.41-.24c.28-.16.55-.13.65-.1.1.02.34.1.39.34l.17.88.2.12s.02,0,.03,0c.25-.06.45-.02.57.06l.05.02.05-.03c.28-.16.56-.12.66-.1.1.02.34.1.39.34l.17.88.06.04.32-.18c.2-.11.43-.15.65-.1.22.05.37.17.42.33l.27.96.15.09.42-.24c.28-.16.55-.12.65-.1.11.02.35.1.4.34l.2,1.02.04.02c.06-.02.12-.04.16-.05.06-.01.12-.02.18-.03l.14-.08c.28-.16.55-.12.65-.1s.35.1.4.34l.19.96.11.06s.07-.02.1-.03c.03,0,.06-.01.08-.02l.25-.14c.28-.16.55-.12.65-.1s.35.1.39.34l.13.62,21.83-12.91-17.73-10.65-5.48,3.16-20.84-12.66m-1.71-1.04l-19.81,11.44-3.87,8.79-26.09,15.06.28.17,27.05-15.62,3.87-8.79,18.85-10.88-.28-.17m-1.71-1.04l-21.16,12.21-3.86,8.79-26.09,15.06.28.17,27.05-15.62,3.87-8.79,20.19-11.66-.28-.17m-23,11.66l-.66.38-3.81,8.69.65-.37,3.82-8.7m-36.46-6.29c-.33.19-.32.52.04.74s.91.23,1.25.04.31-.52-.04-.74-.91-.24-1.25-.05m-16.14,12.35c-.93.54-2.43.51-3.38-.06s-.96-1.47-.03-2l5.61-3.24c.92-.53,2.43-.5,3.38.07s.95,1.47.03,2l-5.61,3.24m14.75-11.63c-.21-.43-.03-.91.54-1.24.83-.48,2.17-.46,3,.04s.82,1.3,0,1.77c-.57.33-1.38.42-2.1.29l-10.1,5.83-1.42-.87,10.1-5.83m-20.71,8.01c-.93.54-2.44.5-3.38-.07s-.95-1.47-.02-2l5.61-3.24c.92-.53,2.43-.5,3.37.07s.96,1.47.04,2l-5.61,3.24m-5.96-3.62c-.93.54-2.44.5-3.38-.07s-.95-1.47-.02-2l5.61-3.24c.92-.53,2.43-.5,3.37.07s.96,1.47.04,2l-5.61,3.24m14.64,17.36l-29.96-18.2,5.25-3.03,1.42.87-3.85,2.22,27.11,16.47,22.51-13,7.94-12.15,22.74-12.99-5.09-3.09.12-2.83,40.78-23.54,49.07,29.8-.12,2.83-15.11,8.72,25.12,15.26-2.88,14.18-.24.14-28.05,16.34.16.78.2.12s.02,0,.03,0c.09-.02.17-.03.25-.03l.14-.08c.28-.16.56-.12.66-.1.1.02.34.1.39.34l.17.88h0c.07.04.13.09.19.13.01,0,.03,0,.04,0,.25-.07.45-.02.57.06l.11.05.04.15c0,.1-.07.18-.2.27.02.03.04.05.06.08l.41-.24c.28-.16.56-.12.66-.1s.34.1.4.34l.21,1.06c.08-.03.14-.05.19-.07.25-.06.45-.02.57.06l.1.05.04.15c0,.13-.12.24-.34.37-.08.04-.16.09-.26.14-.05.03-.1.05-.14.07-.01,0-.03.02-.04.02l-.07.08h-.11c-.51.11-.68-.08-.73-.13-.07-.1-.01-.22.1-.33l-.25-1.27-.35.2-.27-.17c.08.17.11.35.11.53l.57.02-.06,1.55-.57-.02c0,.52-.33,1.04-1,1.42l-7.89,4.55c-1.01.58-2.5.7-3.76.38l.13.65s0,0,.01,0c.21.12.21.32,0,.44l-.69.4c-.2.12-.53.11-.74-.01s-.21-.32-.01-.44l.67-.39-.18-.93c-.13-.06-.26-.13-.38-.2l-.87-.53.08.38s0,0,.01,0c.21.12.21.32,0,.44l-.69.4c-.2.12-.53.11-.74-.01s-.21-.32,0-.44l.66-.38-.18-.91-1.05-.64.08.38s0,0,0,0c.21.12.21.32,0,.44l-.69.4c-.2.12-.53.11-.74-.01s-.21-.32,0-.44l.67-.39-.18-.9-1.17-.71.08.38s0,0,0,0c.21.12.21.32.01.44l-.69.4c-.2.12-.54.11-.74-.02s-.21-.32,0-.44l.67-.39-.18-.9-1.06-.64.03.13c.09.03.17.07.24.12.51.31.52.8,0,1.1-.2.12-.46.19-.73.21l-27.3,15.61-55-33.91,27.11-15.65,3.87-8.79,22.67-13.09-15.49-9.41-22.45,12.82-7.94,12.15-24.2,13.97m-20.62-20.73c-.92.53-2.43.5-3.37-.07s-.96-1.47-.04-2l5.61-3.24c.93-.54,2.44-.5,3.38.07s.95,1.47.02,2l-5.61,3.24m93.74-62.78l-114.55,66.14c-.2.11-.19.3,0,.42l116.54,70.78c.2.12.52.13.71.01l114.55-66.14c.19-.11.19-.3-.01-.42l-116.54-70.78c-.2-.12-.52-.13-.71-.02"/>
        <path class="cls-15" d="m196.1,472.43c-.2.11-.51.11-.71-.01l-116.54-70.78c-.2-.12-.2-.31,0-.42l114.55-66.14c.19-.11.51-.1.71.02l116.54,70.78c.2.12.2.31.01.42l-114.55,66.14m-3.42-137.79l-114.55,66.14c-.58.33-.57.9.02,1.26l116.54,70.78c.59.36,1.54.38,2.12.04l114.55-66.14c.58-.33.57-.9-.02-1.26l-116.54-70.78c-.59-.36-1.54-.38-2.12-.05"/>
        <path class="cls-16" d="m190.36,389.04l-22.67,13.09-3.87,8.79-27.11,15.65,55,33.91,27.3-15.61c-.4.03-.82-.05-1.13-.24-.27-.16-.39-.38-.38-.59l-25.8,14.76-18.75-11.56-33.75-20.49,26.46-15.28,3.81-8.69.66-.38.04-.09,21.53-12.43-1.37-.83"/>
        <path class="cls-16" d="m208.73,438.5c.26.08.58.06.79-.06s.24-.31.11-.46h0s-.05.05-.09.07l-.69.4s-.08.04-.12.05m-.18-1.17l-.28.16c.12-.05.25-.08.38-.1l-.1-.06m-16.82-47.46l-21.53,12.43-.04.09-3.82,8.7-.65.37-26.46,15.28,33.75,20.49,10.52,6.39,25.29-14.72c-.25-.03-.48-.11-.68-.22-.45-.27-.5-.69-.15-.99l-24.5,14.26-4.52-2.75-.06.03-36.6-22.23.06-.03-.28-.17,26.09-15.06,3.86-8.79,21.16-12.21-1.42-.87"/>
        <path class="cls-16" d="m202.95,434.92c.22.03.45,0,.61-.1l-.21-.13-.35.2s-.03.02-.05.02m-.39-.7c-.07.04-.12.09-.15.14l.2-.11-.04-.03m-9.13-43.31l-20.19,11.66-3.87,8.79-27.05,15.62-.06.03,36.6,22.23.06-.03,24.08-13.9c-.32-.01-.63-.09-.88-.24-.34-.2-.45-.49-.34-.75l-22.95,13.25-6.6-4.01-.06.03-26.87-16.32.06-.03-.28-.17,26.09-15.06,3.87-8.79,19.81-11.44-1.42-.87"/>
        <path class="cls-16" d="m195.13,391.94l-18.85,10.88-3.87,8.79-27.05,15.62-.06.03,26.87,16.32.06-.03,23.09-13.19h-.01c-.44.06-.93-.01-1.28-.22-.23-.14-.36-.32-.38-.5l-21.49,12.27-24.03-14.59,26.09-15.06,3.87-8.79,18.47-10.66-1.43-.87"/>
        <path class="cls-16" d="m202.14,433.96c-.17.1-.28.22-.34.35-.11.26,0,.54.34.75.24.15.56.23.88.24.35.01.71-.06.97-.21.51-.29.51-.78,0-1.09-.11-.06-.23-.12-.36-.15l.04.22s0,0,.01,0c.19.11.21.29.05.41.05.13-.01.26-.17.36s-.39.13-.61.1c-.2.09-.5.08-.69-.04-.21-.12-.21-.32,0-.44l.15-.09c.03-.05.08-.1.15-.14s.15-.07.24-.09l.12-.07-.06-.31c-.26.02-.52.09-.72.21"/>
        <path class="cls-16" d="m194.04,429.04c-.28.16-.4.38-.38.6.02.18.15.36.38.5.34.21.84.28,1.28.22.21-.03.41-.09.57-.19.51-.29.5-.78,0-1.09-.05-.03-.11-.06-.17-.09l.05.27s0,0,0,0c.21.12.21.32.01.44l-.21.12s-.07.06-.11.09-.1.05-.15.06l-.22.13c-.2.12-.54.11-.74-.02-.18-.11-.2-.28-.06-.4-.06-.13,0-.28.17-.38.15-.08.35-.12.54-.1l-.07-.37c-.33,0-.65.07-.9.21"/>
        <path class="cls-16" d="m217.89,443.53c-.24.14-.37.32-.38.51-.02.21.11.43.38.59.31.19.73.27,1.13.24.27-.02.52-.09.73-.21.51-.29.5-.78,0-1.1-.07-.04-.15-.08-.24-.12l.05.26s0,0,.01,0c.21.12.21.32,0,.44l-.07.04c-.02.08-.08.15-.18.21s-.23.09-.36.1l-.07.04c-.2.12-.53.11-.74-.01s-.21-.32-.02-.44c-.01-.11.05-.22.19-.3.13-.08.3-.11.48-.1l-.07-.36c-.3,0-.6.08-.83.21"/>
        <path class="cls-16" d="m208.1,437.58c-.06.03-.11.07-.15.11-.35.3-.3.72.15.99.19.12.43.19.68.22.42.05.86,0,1.18-.19.51-.29.5-.78,0-1.1-.13-.08-.29-.14-.46-.18l.04.18s0,0,0,0c.17.1.2.25.1.37,0,0,0,0,0,0,.13.16.1.34-.11.46s-.53.14-.79.06c-.2.06-.45.03-.62-.07-.21-.12-.21-.32,0-.44l.67-.39-.04-.23s-.05,0-.07.01c-.13.02-.26.06-.38.1-.06.02-.12.05-.17.08"/>
        <path class="cls-16" d="m204.2,448.69c-.33.19-.89.17-1.24-.04s-.38-.55-.05-.74.89-.17,1.25.04.37.55.04.74m-2.14-1.3c-.83.48-.83,1.27,0,1.77s2.16.52,2.99.05c.57-.33.75-.81.54-1.24l-.42.24-1.43-.87.42-.24c-.72-.13-1.53-.04-2.09.29"/>
        <path class="cls-16" d="m214.86,442.16c.22.03.46,0,.63-.09.01,0,.02-.02.04-.02l-.22-.14-.38.22s-.04.02-.06.03m-.37-.7c-.05.03-.09.07-.13.1l.19-.11h-.02s-.03,0-.04,0m-.78.13l-9.55,5.52-.42.24,1.43.87.42-.24,9.42-5.44c-.34,0-.68-.08-.94-.24-.32-.2-.44-.46-.36-.71"/>
        <path class="cls-16" d="m214.06,441.2c-.19.11-.31.25-.36.39-.08.24.03.51.36.71.26.16.6.24.94.24.33,0,.66-.07.91-.21.51-.29.5-.78,0-1.09-.11-.07-.23-.12-.37-.16l.04.22s0,0,.01,0c.19.11.21.28.06.4.05.12,0,.25-.13.35-.01,0-.02.02-.04.02-.17.1-.41.13-.63.09-.2.08-.49.07-.68-.04-.21-.13-.21-.32-.01-.44l.2-.11s.07-.07.13-.1c.01,0,.03-.01.04-.02.04-.02.09-.04.14-.05l.17-.1-.06-.29c-.26.02-.51.09-.71.21"/>
        <path class="cls-16" d="m235.25,436.03s-.03.02-.05.03v.07s.22.12.22.12c0,0,.02,0,.03,0,.19-.05.35-.03.47.01l.07-.04c.11-.06.22-.09.31-.11-.02-.02-.04-.03-.07-.05-.28-.17-.71-.18-.97-.03m7.84-45.39l-1.4.81,24.42,14.83-2.68,13.21-27.6,16.08c.31.02.61.1.84.24.32.19.44.45.36.7v.06s28.06-16.34,28.06-16.34l.24-.14,2.88-14.18-25.12-15.26"/>
        <path class="cls-16" d="m219.94,426.65l-.03.02.04.03v-.05m-.85-.46l.06.03c.15-.03.29-.01.39.03l.07-.04c.06-.03.11-.06.17-.08-.23-.06-.49-.04-.68.06m5.2-24.69l-1.4.81,17.73,10.65-21.83,12.91h0c.51-.2,1.23-.16,1.69.12.18.11.3.24.35.38l22.6-13.36-19.14-11.5"/>
        <path class="cls-16" d="m219.95,426.86l.04.02v-.03s-.03,0-.04.01m-1.16-.99l.07.33.11.07s0,0,0,0c.02-.02.05-.04.09-.06.01,0,.02-.01.03-.02.19-.1.45-.11.68-.06.21-.07.4-.04.48-.02.1.02.35.1.4.34l.08.42c.13-.16.17-.34.1-.52-.05-.14-.17-.27-.35-.38-.46-.28-1.18-.32-1.69-.11"/>
        <path class="cls-16" d="m236.32,436.66l-.12.07.15.09-.03-.16m-1.2-1.01l.08.41s.03-.02.05-.03c.26-.15.7-.14.97.03.02.02.05.03.07.05.15-.02.28,0,.35,0,.1.02.34.1.39.34v.04c.08-.24-.04-.5-.35-.7-.24-.14-.54-.22-.84-.24-.24-.01-.49.01-.71.08"/>
        <polyline class="cls-16" points="95.57 397.35 90.32 400.38 120.28 418.58 144.48 404.6 152.42 392.45 174.87 379.63 173.44 378.76 150.7 391.76 142.77 403.91 120.26 416.9 93.14 400.44 97 398.21 95.57 397.35"/>
        <path class="cls-15" d="m257.28,379.93l-39.26,22.67-.07,1.71,39.26-22.67.07-1.71m-87.84-6.25l-.08,1.77,47.58,28.9.08-1.78-47.57-28.89m39.83-23.55l-39.59,22.86.06.04,87.3,6.12-47.77-29.01"/>
        <path class="cls-11" d="m169.44,373.68l-.83-.5.7-.4.36.22,39.59-22.86,47.77,29.01h.12s.3-.16.3-.16l.72.44-.89.52-.07,1.71-39.26,22.67-.03.76-.5-.02-.5-.02.03-.68-47.58-28.9.08-1.77m39.81-24.39l-40.78,23.54-.12,2.83,5.09,3.09,1.43.87,15.49,9.41,1.37.83,1.42.87.28.17,1.42.87.28.17,1.43.87,20.84,12.66,5.48-3.16,1.4-.81,17.4-10.04,1.4-.81,15.11-8.72.12-2.83-49.07-29.8"/>
        <polyline class="cls-15" points="169.73 373.03 217.51 402.04 257.15 379.15 257.03 379.14 169.73 373.03"/>
        <polyline class="cls-11" points="169.31 372.77 168.61 373.18 169.44 373.68 217.01 402.57 216.94 404.35 216.91 405.03 217.41 405.05 217.91 405.07 217.94 404.31 218.02 402.6 257.28 379.93 258.17 379.42 257.45 378.98 257.15 379.15 217.51 402.04 169.73 373.03 169.67 372.99 169.31 372.77"/>
        <path class="cls-10" d="m101.85,392.54l-5.61,3.24c-.92.53-.91,1.43.04,2s2.45.6,3.37.07l5.61-3.24c.93-.54.92-1.43-.02-2s-2.46-.6-3.38-.07"/>
        <path class="cls-10" d="m107.84,395.91l-5.61,3.24c-.93.54-.92,1.43.02,2s2.46.6,3.38.07l5.61-3.24c.92-.53.91-1.43-.04-2s-2.45-.6-3.37-.07"/>
        <path class="cls-10" d="m113.8,399.53l-5.61,3.24c-.93.54-.91,1.43.02,2s2.46.6,3.38.07l5.61-3.24c.92-.53.91-1.43-.04-2s-2.45-.6-3.37-.07"/>
        <path class="cls-10" d="m119.76,403.15l-5.61,3.24c-.93.54-.91,1.43.03,2s2.45.6,3.38.06l5.61-3.24c.92-.53.91-1.42-.03-2s-2.46-.6-3.38-.07"/>
        <path class="cls-11" d="m227.9,446.42l.05.03-.77.44.05.27c.98.42,2.33.39,3.19-.1l7.89-4.55c.5-.29.74-.68.71-1.08l-7.82,4.51c-.89.51-2.16.67-3.31.48m-2.41-1.04l-.42.24.06.31,1.29.78.78-.45c-.34-.1-.66-.24-.94-.41l-.77-.47m-1.91-1.16l-.42.24.06.31,1.09.66.64-.37-1.37-.83m-2.03-1.23l-.42.24.06.31,1.2.73.64-.37-1.49-.9m-1.91-1.16l-.42.24.06.31,1.09.66.64-.37-1.38-.84m-2.05-1.25l-.42.24.06.31,1.23.75.64-.37-1.52-.92m-1.91-1.16l-.42.24.06.31,1.09.66.64-.37-1.38-.84m-2.03-1.23l-.42.24.06.31,1.21.73.64-.37-1.49-.91m-1.91-1.16l-.42.24.06.31,1.09.66.64-.37-1.38-.84m-2.12-1.29l-.42.24.06.31,1.3.79.64-.37-1.59-.97m-1.91-1.16l-.42.24.06.31,1.09.66.64-.37-1.38-.84m-2.03-1.23l-.42.24.06.31,1.21.73.64-.37-1.49-.91m-1.91-1.16l-.42.24.06.31,1.09.66.64-.37-1.38-.84m-2.05-1.25l-.42.24.06.31,1.23.75.64-.37-1.52-.92m-1.91-1.16l-.42.24.06.31,1.09.66.64-.37-1.38-.84m-2.02-1.23l-.42.24.06.31,1.2.73.64-.37-1.49-.9m-1.85-1.12c-.06.41.16.84.67,1.17l.64-.37-1.21-.73s-.07-.04-.1-.06"/>
        <path class="cls-11" d="m227.24,447.17l.14.71c1.26.32,2.76.2,3.76-.38l7.89-4.55c.67-.38,1-.9,1-1.42l-.83-.03v-.16s-.07.04-.1.07l-.07.04c.03.39-.21.79-.71,1.08l-7.89,4.55c-.86.5-2.21.52-3.19.1m-2.1-1.24l.19.94.87.53c.12.07.25.14.38.2l-.17-.87h.03s-1.29-.8-1.29-.8m-1.91-1.16l.19.94,1.05.64-.18-.91h.03s-1.09-.67-1.09-.67m-2.03-1.23l.19.94,1.17.71-.18-.91h.03s-1.2-.74-1.2-.74m-1.91-1.16l.19.94,1.06.64-.18-.91h.03s-1.09-.68-1.09-.68m-2.05-1.25l.19.94,1.2.73-.18-.91h.03s-1.23-.76-1.23-.76m-1.91-1.16l.19.94,1.06.64-.18-.91h.03s-1.09-.68-1.09-.68m-2.03-1.23l.19.94,1.18.71-.18-.91h.03s-1.21-.75-1.21-.75m-1.91-1.16l.19.94,1.06.64-.18-.91h.03s-1.09-.68-1.09-.68m-2.12-1.29l.19.94,1.27.77-.18-.91h.03s-1.3-.81-1.3-.81m-1.91-1.16l.19.94,1.06.64-.18-.91h.03s-1.09-.68-1.09-.68m-2.03-1.23l.19.94,1.18.71-.18-.91h.03s-1.21-.75-1.21-.75m-1.91-1.16l.19.94,1.06.64-.18-.91h.03s-1.09-.68-1.09-.68m-2.05-1.25l.19.94,1.2.73-.18-.91h.03s-1.23-.76-1.23-.76m-1.91-1.16l.19.94,1.06.64-.18-.91h.03s-1.09-.68-1.09-.68m-2.02-1.23l.19.94,1.17.71-.18-.91h.03s-1.2-.74-1.2-.74m-1.55-1.71l-.11.06v.12s-.19,0-.19,0l-.12.07.24,1.22c.08.06.18.13.28.19l.79.48-.18-.91.03-.02c-.51-.33-.73-.76-.67-1.17-.02-.01-.04-.03-.06-.04"/>
        <path class="cls-11" d="m195.76,427.45l-.19.11h.18s0-.11,0-.11m-1.34-1.49l-.07,1.55h.32s-.01-.06-.01-.06l.77-.44c-.3-.32-.44-.68-.44-1.03l-.57-.02"/>
        <path class="cls-11" d="m240.09,439.96c0,.49-.29.98-.89,1.36v.16s.82.03.82.03l.57.02.06-1.55-.57-.02"/>
        <path class="cls-16" d="m195.43,427.01l-.77.44v.07s.27,1.31.27,1.31l.07.37v.06s.03-.01.03-.01c.2-.12.52-.11.73.01l-.05-.27-.03-.13-.24-1.22.12-.07.19-.11.11-.06c-.17-.12-.32-.24-.44-.38"/>
        <path class="cls-16" d="m195.04,429.25h-.02s-.67.4-.67.4c-.02.01-.04.02-.05.04-.14.12-.12.29.06.4.21.12.54.14.74.02l.22-.13.26-.15.21-.12c.2-.12.19-.32-.01-.44,0,0,0,0,0,0-.21-.12-.53-.13-.73-.01"/>
        <path class="cls-16" d="m197.24,428.22l-.64.37-.03.02.18.91.18.9h.02c.2-.13.52-.12.73,0l-.08-.38-.19-.94-.06-.31.42-.24-.54-.33"/>
        <path class="cls-16" d="m196.95,430.41h-.02s-.67.4-.67.4c-.2.12-.2.31,0,.44s.54.13.74.01l.69-.4c.2-.12.2-.31,0-.44,0,0,0,0,0,0-.21-.12-.53-.13-.73-.01"/>
        <path class="cls-16" d="m199.27,429.45l-.64.37h-.03s.18.92.18.92l.18.91h.02c.2-.13.52-.12.72,0l-.08-.38-.19-.94-.06-.31.42-.24-.53-.32"/>
        <path class="cls-16" d="m198.98,431.64h-.02s-.66.4-.66.4c-.2.12-.2.31,0,.44s.54.13.74.01l.69-.4c.2-.12.2-.31,0-.44,0,0,0,0-.01,0-.21-.12-.53-.12-.72,0"/>
        <path class="cls-16" d="m201.18,430.61l-.64.37h-.03s.18.92.18.92l.18.91h.02c.2-.13.52-.12.72,0l-.08-.38-.19-.94-.06-.31.42-.24-.53-.32"/>
        <path class="cls-16" d="m200.89,432.8h-.02s-.66.4-.66.4c-.2.12-.2.31,0,.44s.54.13.74.01l.69-.4c.2-.12.2-.31,0-.44,0,0,0,0-.01,0-.21-.12-.53-.12-.72,0"/>
        <path class="cls-16" d="m203.23,431.86l-.64.37h-.03s.18.92.18.92l.12.6.06.31h.02c.2-.13.52-.12.72,0l-.04-.22-.03-.16-.19-.94-.06-.31.42-.24-.53-.32"/>
        <path class="cls-16" d="m202.95,434.05h-.02s-.12.08-.12.08l-.2.11-.2.11-.15.09c-.2.12-.2.31,0,.44.19.11.48.13.69.04.02,0,.03-.02.05-.02l.35-.2.34-.2s.03-.02.05-.03c.15-.12.14-.29-.05-.41,0,0,0,0-.01,0-.21-.12-.53-.12-.72,0"/>
        <path class="cls-16" d="m205.14,433.02l-.64.37h-.03s.18.92.18.92l.18.9h.02c.2-.13.52-.12.73,0l-.08-.38-.19-.94-.06-.31.42-.24-.53-.32"/>
        <path class="cls-16" d="m204.85,435.2h-.02s-.67.4-.67.4c-.2.12-.19.32.01.44s.54.13.74.01l.69-.4c.2-.12.2-.31,0-.44,0,0,0,0-.01,0-.21-.12-.53-.13-.73-.01"/>
        <path class="cls-16" d="m207.17,434.25l-.64.37h-.03s.18.92.18.92l.18.9h.02c.2-.13.52-.12.73,0l-.08-.38-.19-.94-.06-.31.42-.24-.53-.32"/>
        <path class="cls-16" d="m206.88,436.44h-.02s-.67.4-.67.4c-.2.12-.2.31.01.44s.54.13.74.01l.69-.4c.2-.12.2-.31,0-.44,0,0,0,0-.01,0-.21-.12-.53-.13-.73-.01"/>
        <path class="cls-16" d="m209.08,435.41l-.64.37h-.03s.18.92.18.92l.13.68.04.23h.02c.2-.13.52-.12.73,0l-.04-.18-.04-.2-.19-.94-.06-.31.42-.24-.53-.32"/>
        <path class="cls-16" d="m208.79,437.6h-.02s-.67.4-.67.4c-.2.12-.2.31,0,.44.17.1.42.13.62.07.04-.01.09-.03.12-.05l.69-.4s.07-.05.09-.07c0,0,0,0,0,0,.1-.12.06-.27-.1-.37,0,0,0,0,0,0-.21-.12-.53-.13-.73-.01"/>
        <path class="cls-16" d="m211.21,436.7l-.64.37h-.03s.18.92.18.92l.18.91h.02c.2-.13.52-.12.72,0l-.08-.38-.19-.94-.06-.31.42-.24-.53-.32"/>
        <path class="cls-16" d="m210.92,438.89h-.02s-.66.4-.66.4c-.2.12-.2.31,0,.44s.54.13.74.01l.69-.4c.2-.12.2-.31,0-.44,0,0,0,0-.01,0-.21-.12-.53-.12-.72,0"/>
        <path class="cls-16" d="m213.12,437.87l-.64.37h-.03s.18.92.18.92l.18.91h.02c.2-.13.52-.12.72,0l-.08-.38-.19-.94-.06-.31.42-.24-.53-.32"/>
        <path class="cls-16" d="m212.83,440.05h-.02s-.66.4-.66.4c-.2.12-.2.31,0,.44s.54.13.74.01l.69-.4c.2-.12.2-.31,0-.44,0,0,0,0-.01,0-.21-.12-.53-.12-.72,0"/>
        <path class="cls-16" d="m215.15,439.1l-.64.37h-.03s.18.92.18.92l.12.61.06.29h.02c.2-.13.52-.12.73,0l-.04-.22-.03-.17-.19-.94-.06-.31.42-.24-.53-.32"/>
        <path class="cls-16" d="m214.85,441.28h-.02s-.17.11-.17.11l-.11.06-.19.11-.2.11c-.2.12-.2.31.01.44.19.11.47.13.68.04.02,0,.04-.02.06-.03l.38-.22.3-.17s.04-.02.05-.04c.15-.12.13-.29-.06-.4,0,0,0,0-.01,0-.21-.12-.53-.13-.73-.01"/>
        <path class="cls-16" d="m217.06,440.26l-.64.37h-.03s.18.92.18.92l.18.9h.02c.2-.13.52-.12.73,0l-.08-.38-.19-.94-.06-.31.42-.24-.53-.32"/>
        <path class="cls-16" d="m216.77,442.44h-.02s-.67.4-.67.4c-.2.12-.2.31,0,.44s.54.14.74.02l.69-.4c.2-.12.2-.31-.01-.44,0,0,0,0,0,0-.21-.12-.53-.13-.73-.01"/>
        <path class="cls-16" d="m219.11,441.5l-.64.37h-.03s.18.92.18.92l.1.52.07.36v.02s.02-.01.02-.01c.2-.11.52-.11.73.01l-.05-.26-.03-.13-.19-.94-.06-.31.42-.24-.53-.32"/>
        <path class="cls-16" d="m218.82,443.69h-.02s-.67.4-.67.4c0,0,0,0,0,0-.2.12-.19.31.02.44s.54.13.74.01l.07-.04.54-.31.07-.04c.2-.12.2-.31,0-.44,0,0,0,0-.01,0-.21-.12-.53-.13-.73-.01"/>
        <path class="cls-16" d="m221.02,442.67l-.64.37h-.03s.18.92.18.92l.18.9h.02c.2-.13.52-.12.73,0l-.08-.38-.19-.94-.06-.31.42-.24-.53-.32"/>
        <path class="cls-16" d="m220.73,444.85h-.02s-.67.4-.67.4c-.2.12-.2.31,0,.44s.54.14.74.02l.69-.4c.2-.12.19-.32-.01-.44,0,0,0,0,0,0-.21-.12-.53-.13-.73-.01"/>
        <path class="cls-16" d="m223.04,443.89l-.64.37h-.03s.18.92.18.92l.18.9h.02c.2-.13.52-.12.73,0l-.08-.38-.19-.94-.06-.31.42-.24-.54-.33"/>
        <path class="cls-16" d="m222.76,446.08h-.02s-.67.4-.67.4c-.2.12-.2.31,0,.44s.54.13.74.01l.69-.4c.2-.12.2-.31,0-.44,0,0,0,0,0,0-.21-.12-.53-.13-.73-.01"/>
        <path class="cls-16" d="m224.96,445.05l-.64.37h-.03s.18.92.18.92l.18.91h.02c.2-.13.52-.12.72,0l-.08-.38-.19-.94-.06-.31.42-.24-.53-.32"/>
        <path class="cls-16" d="m224.67,447.24h-.02s-.66.4-.66.4c-.2.12-.2.31,0,.44s.54.13.74.01l.69-.4c.2-.12.2-.31,0-.44,0,0,0,0-.01,0-.21-.12-.53-.12-.72,0"/>
        <path class="cls-16" d="m227.2,446.26l-.78.45h-.03s.17.89.17.89l.18.93h.02c.2-.13.52-.12.73,0l-.13-.65-.14-.71-.05-.27.77-.44-.05-.03c-.24-.04-.47-.09-.7-.16"/>
        <path class="cls-16" d="m226.77,448.52h-.02s-.67.4-.67.4c-.2.12-.19.32.01.44s.54.13.74.01l.69-.4c.2-.12.2-.31,0-.44,0,0,0,0-.01,0-.21-.12-.53-.13-.73-.01"/>
        <path class="cls-16" d="m241.52,440.27l.09.46-.74.03-.02-.08c-.12.11-.17.23-.1.33.05.06.21.24.73.14h.11s.07-.08.07-.08c0,0,.02-.02.04-.02.04-.02.09-.04.14-.07.1-.05.18-.1.26-.14.22-.12.34-.23.34-.37l-.04-.15-.1-.05c-.12-.08-.32-.13-.57-.06-.05.01-.11.03-.19.07"/>
        <path class="cls-16" d="m240.25,438.96l-.41.24c.05.08.09.16.13.24l.27.17.35-.2.25,1.27.02.08.74-.03-.09-.46-.21-1.06c-.05-.23-.3-.31-.4-.34s-.38-.06-.66.1"/>
        <path class="cls-16" d="m239.24,438.59c.23.16.41.34.55.53.13-.09.21-.18.2-.27l-.04-.15-.11-.05c-.12-.08-.32-.13-.57-.06-.01,0-.02,0-.04,0"/>
        <path class="cls-16" d="m237.82,437.34l-.14.08c.13,0,.25.04.32.09l.1.05.04.15s0,.06-.02.08l.04-.02.03.16.85.51-.17-.88c-.04-.23-.29-.32-.39-.34-.1-.02-.38-.06-.66.1"/>
        <path class="cls-16" d="m237.4,437.46l.68.41s.04-.05.05-.07c.01-.03.02-.06.02-.08l-.04-.15-.1-.05c-.08-.05-.19-.09-.32-.09-.08,0-.16,0-.25.03,0,0-.02,0-.03,0"/>
        <path class="cls-16" d="m235.97,436.22l-.07.04s.07.03.11.05l.1.05.04.15c0,.06-.02.11-.06.16l.1.06.12-.07.03.16.85.52-.16-.78v-.06s-.02-.04-.02-.04c-.04-.23-.28-.31-.39-.34-.06-.02-.19-.03-.35,0-.1.02-.21.05-.31.11"/>
        <path class="cls-16" d="m235.41,436.26l.68.41c.04-.05.06-.1.06-.16l-.04-.15-.1-.05s-.07-.04-.11-.05c-.12-.04-.28-.06-.47-.01,0,0-.02,0-.03,0"/>
        <path class="cls-16" d="m233.99,435.02l-.23.13c.21-.03.37.02.47.08l.11.05.04.15s-.01.08-.04.12v.06s.86.52.86.52v-.07s-.1-.41-.1-.41l-.08-.39c-.05-.24-.29-.32-.39-.34-.1-.02-.37-.06-.65.1"/>
        <path class="cls-16" d="m233.64,435.18l.69.42s.02-.02.03-.03c.03-.04.04-.08.04-.12l-.04-.15-.11-.05c-.1-.07-.27-.11-.47-.08-.03,0-.07.01-.1.02,0,0-.02,0-.03,0"/>
        <path class="cls-16" d="m232.21,433.94l-.32.18.53.32.12-.07.03.16.85.52-.17-.88c-.05-.24-.29-.32-.39-.34-.1-.02-.37-.06-.65.1"/>
        <path class="cls-16" d="m231.08,433.63l.68.41c.04-.05.06-.1.06-.16l-.04-.15-.1-.05c-.12-.08-.32-.13-.57-.06,0,0-.02,0-.03,0"/>
        <path class="cls-16" d="m229.66,432.39l-.14.08c.13,0,.24.04.31.09l.1.05.04.15s0,.06-.02.09l.04-.02.03.16.85.52-.17-.88c-.05-.24-.29-.32-.39-.34-.1-.02-.37-.06-.65.1"/>
        <path class="cls-16" d="m229.24,432.5l.68.41s.03-.05.05-.07c.01-.03.02-.06.02-.09l-.04-.15-.1-.05c-.07-.05-.18-.09-.31-.09-.08,0-.17,0-.26.03,0,0-.02,0-.03,0"/>
        <path class="cls-16" d="m227.81,431.27l-.09.05c.08.02.15.05.2.08l.1.05.04.15c0,.06-.02.11-.06.16l.03.02.12-.07.03.16.85.52-.17-.88c-.05-.24-.29-.32-.39-.34-.1-.02-.37-.06-.65.1"/>
        <path class="cls-16" d="m227.32,431.34l.68.41c.04-.05.06-.1.06-.16l-.04-.15-.1-.05c-.05-.04-.12-.06-.2-.08-.11-.02-.23-.02-.37.02,0,0-.02,0-.03,0"/>
        <path class="cls-16" d="m225.89,430.1l-.14.08c.06.02.11.04.15.07l.1.05.05.15s0,.07-.03.11l.09.05.12-.07.03.16.85.52-.18-.88c-.04-.23-.28-.31-.39-.34-.1-.02-.38-.06-.66.1"/>
        <path class="cls-16" d="m225.39,430.17l.64.39s.03-.07.03-.11l-.05-.15-.1-.05s-.09-.05-.15-.07c-.1-.03-.22-.03-.37,0"/>
        <path class="cls-16" d="m223.89,428.95l-.26.15.54.33.06-.03.02.08.85.52-.16-.8c-.04-.23-.29-.32-.39-.34-.1-.02-.38-.06-.65.1"/>
        <path class="cls-16" d="m222.8,428.6l.71.43c.07-.07.11-.13.11-.2l-.05-.15-.1-.05c-.12-.08-.33-.12-.58-.06-.03,0-.06.02-.1.03"/>
        <path class="cls-16" d="m221.45,427.33l-.14.08c.14,0,.25.04.32.09l.1.05.04.14s0,.06-.02.09l.03-.02.05.24.86.52-.19-.96c-.05-.24-.3-.31-.4-.34s-.37-.06-.65.1"/>
        <path class="cls-16" d="m220.95,427.47l.71.43s.07-.08.09-.12c.01-.03.02-.06.02-.09l-.04-.14-.1-.05c-.07-.05-.18-.09-.32-.09-.08,0-.17,0-.26.03-.03,0-.06.02-.1.03"/>
        <path class="cls-16" d="m219.61,426.21l-.07.04s.08.03.11.05l.1.05.05.15c0,.07-.04.14-.11.2l.08.05.14-.08.03-.02v.05s.04.16.04.16v.03s.87.52.87.52l-.11-.54-.08-.42c-.05-.24-.3-.31-.4-.34-.08-.02-.27-.05-.48.02-.06.02-.11.04-.17.08"/>
        <path class="cls-16" d="m218.97,426.27l.71.43c.07-.07.11-.13.11-.2l-.05-.15-.1-.05s-.07-.04-.11-.05c-.1-.04-.24-.05-.39-.03-.03,0-.05.01-.08.02-.03,0-.06.02-.09.03,0,0,0,0,0,0"/>
        <path class="cls-16" d="m217.62,425l-.25.14c.22-.04.39,0,.5.08l.1.05.05.15s-.01.08-.04.12l.03.14.86.52-.07-.33h0s-.13-.63-.13-.63c-.04-.23-.29-.31-.39-.34s-.38-.06-.65.1"/>
        <path class="cls-16" d="m217.19,425.19l.71.43s.05-.05.07-.08c.03-.04.04-.08.04-.12l-.05-.15-.1-.05c-.11-.07-.28-.11-.5-.08-.03,0-.05,0-.08.02-.03,0-.06.02-.1.03"/>
        <path class="cls-16" d="m215.85,423.92l-.14.08c.17,0,.3.03.4.09l.1.05.05.15c0,.05-.02.1-.05.15l.03.16.86.52-.19-.96c-.05-.24-.3-.31-.4-.34s-.37-.06-.65.1"/>
        <path class="cls-16" d="m215.37,424.08l.73.44s.07-.06.09-.09c.04-.05.06-.1.05-.15l-.05-.15-.1-.05c-.09-.06-.23-.1-.4-.09-.06,0-.12.01-.18.03-.04,0-.1.03-.16.05"/>
        <path class="cls-16" d="m214.08,422.8l-.42.24.11.07s0,0,0,0c.28-.07.5-.01.62.08.09.05.13.12.14.19,0,.06-.02.11-.06.16l.86.52-.2-1.02c-.05-.24-.29-.32-.4-.34-.1-.02-.37-.06-.65.1"/>
        <path class="cls-16" d="m213.77,423.11l.7.43s.06-.1.06-.16c0-.07-.05-.14-.14-.19-.12-.09-.34-.15-.62-.08,0,0,0,0,0,0"/>
        <path class="cls-16" d="m212.17,421.76l-.32.18.14.09s.02,0,.03,0c.25-.06.45-.02.57.06l.1.05.04.15c0,.06-.02.11-.06.16l.83.51-.27-.96c-.05-.16-.19-.28-.42-.33-.22-.05-.46,0-.65.1"/>
        <path class="cls-16" d="m211.99,422.03l.68.41c.04-.05.06-.1.06-.16l-.04-.15-.1-.05c-.12-.08-.32-.13-.57-.06,0,0-.02,0-.03,0"/>
        <path class="cls-16" d="m210.56,420.79l-.05.03.05.02.04.15c0,.06-.02.11-.06.16l.24.15.12-.07.03.16.85.52-.17-.88c-.05-.24-.29-.32-.39-.34-.1-.02-.38-.06-.66.1"/>
        <path class="cls-16" d="m209.86,420.74l.68.41c.04-.05.06-.1.06-.16l-.04-.15-.05-.02-.05-.02c-.12-.08-.32-.13-.57-.06,0,0-.02,0-.03,0"/>
        <path class="cls-16" d="m208.44,419.5l-.41.24c.22.08.43.17.63.27l.13-.07.03.16s.01,0,.01,0l.84.51-.17-.88c-.05-.24-.29-.32-.39-.34-.1-.02-.37-.06-.65.1"/>
        <path class="cls-11" d="m204.59,420.44l-7.89,4.55c-.96.56-.95,1.5.03,2.1l30.22,18.36c.98.6,2.57.62,3.53.07l7.89-4.55c.96-.56.95-1.49-.03-2.09l-30.22-18.36c-.98-.6-2.57-.63-3.53-.07"/>
        <path class="cls-11" d="m230.49,445.51c-.96.56-2.55.53-3.53-.07l-30.22-18.36c-.98-.6-1-1.54-.03-2.1l7.89-4.55c.96-.56,2.55-.52,3.53.07l30.22,18.36c.98.6,1,1.53.03,2.09l-7.89,4.55m-26.61-25.51l-7.89,4.55c-.67.38-1,.9-1,1.42,0,.35.15.71.44,1.03.12.13.27.26.44.38.02.01.04.03.06.04.03.02.07.04.1.06l1.21.73.54.33,1.49.9.53.32,1.38.84.53.32,1.52.92.53.32,1.38.84.53.32,1.49.91.53.32,1.38.84.53.32,1.59.97.53.32,1.38.84.53.32,1.49.91.53.32,1.38.84.53.32,1.52.92.53.32,1.38.84.53.32,1.49.9.54.33,1.37.83.53.32.77.47c.28.17.6.31.94.41.22.07.46.12.7.16,1.15.19,2.42.03,3.31-.48l7.82-4.51.07-.04s.07-.04.11-.07c.59-.38.89-.86.89-1.36,0-.18-.04-.35-.11-.53-.04-.08-.08-.16-.13-.24-.02-.03-.04-.06-.06-.08-.14-.19-.32-.36-.55-.53-.06-.04-.13-.09-.19-.13h0s-.85-.52-.85-.52l-.11-.07-.68-.41-.2-.12-.85-.52-.15-.09-.1-.06-.68-.41-.2-.12-.85-.52-.04-.02-.69-.42-.2-.12-.85-.52-.15-.09-.53-.32-.13-.08-.68-.41-.2-.12-.85-.52-.11-.07-.68-.41-.2-.12-.85-.52-.15-.09-.03-.02-.68-.41-.2-.12-.85-.52-.15-.09-.09-.05-.64-.39-.3-.18-.85-.52-.07-.04-.54-.33-.12-.07-.71-.43-.11-.07-.86-.52-.17-.1-.71-.43-.11-.07-.86-.52-.04-.02-.19-.11-.08-.05-.71-.43-.11-.07-.86-.52-.1-.06-.71-.43-.11-.06-.86-.52-.12-.07-.73-.44-.04-.02-.86-.52-.7-.43-.11-.07-.15-.09-.83-.51-.68-.41-.14-.09-.06-.04-.85-.52-.15-.09-.24-.15-.68-.41-.2-.12-.84-.51s0,0-.01,0c-.05-.03-.1-.06-.16-.09-.2-.1-.41-.19-.63-.27-1.33-.46-3.03-.38-4.14.26"/>
        <path class="cls-16" d="m134.98,396.89c-.33.19-.89.17-1.25-.04s-.38-.55-.04-.74.89-.17,1.25.05.38.54.04.74m-2.14-1.3c-.57.33-.75.81-.54,1.24l.42-.24,1.42.87-.42.24c.72.14,1.53.04,2.1-.29.83-.48.83-1.28,0-1.77s-2.17-.52-3-.04"/>
        <polyline class="cls-16" points="132.73 396.58 132.31 396.83 122.21 402.66 123.63 403.52 133.74 397.69 134.16 397.45 132.73 396.58"/>
      </g>
    </g>
  </g>
  <line class="cls-13" x1="452.11" y1="213.33" x2="452.93" y2="216.45"/>
  <path class="cls-13" d="m392.53,119.77c-12.25,0-22.99,4.9-28.93,12.24l9.83,6.9c3.4-4.98,10.67-8.42,19.1-8.42,11.67,0,21.14,6.6,21.14,14.75s-9.46,14.75-21.14,14.75h-7.8l.25,27.74h14.09v-18.66c18.69,0,27.3-9.76,27.3-23.83s-15.15-25.47-33.85-25.47Z"/>
  <ellipse class="cls-13" cx="392.03" cy="200.97" rx="8.56" ry="8.7"/>
  <g class="cls-32">
    <g class="cls-23">
      <g>
        <path class="cls-13" d="m194.89,365.37c-2.76,1.59-3.17,3.48-3.29,4.07-.29,1.52.42,2.65.72,3.1.64.96,1.56,1.59,3.39,2.81.96.65,2.22,1.43,3.79,2.26l1.24-.76c.23-.18.49-.35.77-.51l1.14-.66c-.63-.36-1.36-.78-2.18-1.23-.71-.39-1.23-.68-1.99-1.13-1.55-.91-1.8-1.15-1.97-1.34-.18-.2-.53-.65-.66-1.27-.07-.31-.09-.77.09-1.3.41-1.19,1.68-2,2.16-2.27.03-.02.05-.03.07-.04.69-.4,2.22-1.14,4.41-1.31,2.18-.18,3.75.3,4.48.52.79.24,1.2.47,3.09,1.53.8.45,1.85,1.04,3.08,1.75l.55-.32c.23-.13.46-.25.71-.37l1.87-1.02c-.94-.54-2.3-1.28-3.99-2.15-2.82-1.46-3.44-1.67-4.01-1.83-2.86-.78-5.74-.54-6.56-.46-1.25.11-4.3.41-6.9,1.91"/>
        <path class="cls-14" d="m213.77,369.28l-.55.32-10.57,6.11-1.14.66c-.28.16-.54.33-.77.51-2.69,2.02-2.38,4.92.89,6.77l11.31,6.42c3.54,2.01,9.24,2.01,12.73,0l12.26-7.08c3.48-2.01,3.43-5.27-.12-7.28l-11.31-6.42c-3.32-1.88-8.51-2-12.02-.37-.24.11-.48.24-.71.37"/>
      </g>
    </g>
  </g>
  <rect class="cls-5" x="63" y="2.5" width="445.5" height="64" rx="14.74" ry="14.74" transform="translate(571.5 69) rotate(-180)"/>
  <text class="cls-20" transform="translate(87.38 41.75)"><tspan x="0" y="0">H</tspan><tspan class="cls-33" x="19.3" y="0">o</tspan><tspan x="36.29" y="0">w Will the </tspan><tspan class="cls-31" x="174.78" y="0">R</tspan><tspan x="192.31" y="0">e</tspan><tspan class="cls-30" x="208.62" y="0">s</tspan><tspan x="223.02" y="0">ea</tspan><tspan class="cls-26" x="257.69" y="0">r</tspan><tspan x="269.85" y="0">ch Help?</tspan></text>
  <line class="cls-6" x1="270.47" y1="66.5" x2="142.67" y2="124.5"/>
  <polyline class="cls-6" points="142.67 235.39 194.31 281.38 400.59 281.38 457 335.04"/>
  <polyline class="cls-6" points="443 453 348.44 507.56 274.56 507.56 194.31 565.5"/>
  <g class="cls-32">
    <g class="cls-24">
      <g>
        <path class="cls-13" d="m448.6,656.71l1.71-.9-1.71.9,1.82.93-1.82-.93m-65.08-34.93l81.26-42.64,64.96,33.1-81.26,42.64-64.96-33.1m153.28-9.48l-72.26-36.82-88.09,46.23,72.26,36.82,1.71-.9,86.39-45.33"/>
        <path class="cls-14" d="m464.79,584.67l.74-.39.28.14c.11.05.16.11.15.18,0,.07-.06.13-.18.2s-.24.09-.37.09c-.12,0-.24-.03-.34-.08l-.28-.14m2.37-.71l-.08-.04-1.43-.73c-.08-.04-.17-.06-.26-.06-.1,0-.19.02-.26.06l-3.44,1.81c-.07.04-.11.08-.1.13,0,.05.04.1.12.14l.71.36c.08.04.17.06.27.06.1,0,.18-.01.26-.05l.74-.39.16.08-.4.71c-.02.07.02.13.11.17l.85.44c.08.04.17.06.27.06.1,0,.19-.02.26-.06l.5-.91c.6.03,1.12-.07,1.58-.31.2-.11.35-.21.47-.33.11-.12.17-.22.19-.31.03-.09.01-.19-.02-.28-.04-.1-.08-.17-.14-.24-.06-.06-.12-.13-.2-.19-.08-.06-.14-.1-.17-.12"/>
        <path class="cls-14" d="m467.81,586.54c.1-.05.19-.07.27-.08.07,0,.15.02.25.07s.14.09.14.13c-.01.04-.06.08-.15.14l-.5-.25m1.45-.49c-.45-.23-.96-.34-1.53-.33-.56.01-1.06.13-1.5.36s-.65.49-.67.78c-.02.3.2.55.65.78.32.16.68.28,1.08.36.13.02.25,0,.35-.04l.09-.09.06-.35c.02-.06-.03-.11-.12-.16l-.07-.03c-.14-.03-.27-.08-.4-.15-.18-.09-.21-.18-.09-.28l1.33.68c.08.04.16.06.26.06.11,0,.2-.01.27-.05l.08-.04c.49-.25.74-.52.78-.79.03-.27-.17-.5-.58-.71"/>
        <path class="cls-14" d="m472.19,587.54c-.4-.2-.81-.31-1.21-.31-.4,0-.73.06-.99.19-.18.09-.27.21-.28.36,0,.14.05.27.15.39.1.12.2.22.28.32.08.1.11.16.08.17-.06.03-.16.01-.3-.06-.15-.08-.25-.18-.29-.29l-.11-.1-.17-.05-.67-.08c-.1,0-.19.02-.26.06-.07.04-.1.07-.09.11-.01.32.23.6.71.84.43.22.86.34,1.27.35.43.01.76-.05,1-.17.15-.08.25-.18.29-.29.04-.11.02-.22-.03-.32-.06-.11-.13-.2-.2-.29-.08-.09-.15-.17-.2-.24-.05-.07-.06-.11-.04-.12.04-.02.1-.01.17.02.11.05.21.14.3.25l.09.09.21.05.55.03c.12,0,.22-.01.29-.05.08-.04.12-.09.11-.14-.04-.27-.26-.51-.65-.71"/>
        <path class="cls-14" d="m473.75,589.57c.1-.05.19-.08.26-.08.08,0,.15.02.25.07s.14.09.14.13c-.01.04-.06.08-.15.14l-.49-.25m1.45-.49c-.45-.23-.96-.34-1.53-.33-.56.01-1.06.13-1.5.36s-.66.48-.67.78c-.03.29.2.55.65.78.32.16.68.28,1.08.35.13.02.25,0,.35-.04l.1-.09.06-.35c0-.06-.03-.11-.12-.16l-.07-.03c-.14-.03-.27-.08-.4-.15-.18-.09-.21-.18-.08-.28l1.33.68c.08.04.16.06.26.06s.19-.02.26-.06l.08-.04c.49-.25.75-.51.78-.78.02-.27-.17-.51-.58-.71"/>
        <path class="cls-14" d="m476.52,591.74l-.09-.1.07-.1s.12-.07.21-.12c.14-.07.26-.12.35-.14s.18,0,.28.04c.1.05.13.1.09.15-.04.05-.12.11-.26.18s-.26.12-.35.14c-.1.02-.19,0-.29-.05m1.52-1.22c-.72-.36-1.58-.28-2.6.25s-1.16.98-.44,1.35c.25.13.56.19.94.17-.13.09-.12.18.04.26l.72.37c.07.04.16.06.26.06.1,0,.19-.02.26-.06l2.38-1.25c.07-.04.11-.08.11-.14,0-.05-.04-.1-.12-.14l-.72-.37c-.16-.08-.32-.09-.5-.02.03-.2-.09-.36-.34-.49"/>
        <path class="cls-14" d="m482.35,592.75c-.24-.11-.49-.15-.78-.12.06-.04.08-.08.07-.13,0-.05-.05-.1-.12-.13l-.72-.37c-.08-.04-.17-.06-.26-.06-.1,0-.19.02-.26.06l-2.38,1.25c-.07.04-.11.08-.1.13,0,.05.04.1.12.14l.71.36c.08.04.17.06.27.06.1,0,.18-.01.26-.05l1.03-.54c.35-.18.7-.19,1.05-.03.07.04.16.06.26.06.1,0,.18-.01.26-.05l.61-.32c.07-.04.1-.08.09-.13,0-.06-.04-.1-.11-.14"/>
        <path class="cls-14" d="m484.32,593.72c-.44-.22-.94-.33-1.49-.32-.56.01-1.05.14-1.49.37s-.67.49-.69.78c-.02.29.19.54.63.77.35.18.74.28,1.15.29.42.02.84-.05,1.28-.19.07-.04.09-.08.09-.13,0-.06-.03-.1-.11-.14l-.55-.28c-.08-.04-.19-.05-.33-.05-.17.03-.31.01-.42-.04-.18-.09-.12-.22.17-.38s.55-.19.73-.1c.09.05.12.12.07.2-.03.06-.01.11.1.17l.58.3c.07.04.16.05.27.06.1,0,.19-.01.26-.05.56-.46.49-.88-.25-1.26"/>
        <path class="cls-14" d="m488.22,594.55l-.71-.36c-.08-.04-.17-.06-.27-.06-.1,0-.19.02-.26.06l-3.57,1.87c-.07.04-.11.08-.11.14,0,.05.04.1.12.14l.71.36c.07.04.16.06.27.06.1,0,.18-.01.26-.05l1.28-.67c.22-.11.38-.14.49-.09s.07.13-.11.23l-1.33.7c-.07.04-.11.08-.11.14,0,.05.04.1.12.14l.72.37c.16.08.32.09.5.02l1.76-.93s.09-.06.16-.12c.07-.06.14-.13.21-.23.07-.09.08-.2.04-.32-.04-.12-.16-.22-.35-.32l-.18-.08c-.07-.02-.18-.05-.34-.08-.17-.03-.31-.04-.45-.02l1.17-.61c.07-.04.11-.08.11-.14,0-.06-.06-.1-.13-.14"/>
        <polyline class="cls-14" points="520.88 611.6 493.51 597.65 491.46 598.73 518.83 612.68 520.88 611.6"/>
        <polyline class="cls-14" points="513.62 615.41 457.86 587 455.82 588.07 511.57 616.48 513.62 615.41"/>
        <polyline class="cls-14" points="506.89 618.94 451.13 590.53 449.08 591.61 504.84 620.02 506.89 618.94"/>
        <polyline class="cls-14" points="499.96 622.58 444.21 594.17 442.15 595.24 497.91 623.65 499.96 622.58"/>
        <polyline class="cls-14" points="492.77 626.25 437.01 597.84 434.96 598.92 490.71 627.33 492.77 626.25"/>
        <polyline class="cls-14" points="486.03 629.79 430.27 601.38 428.22 602.45 483.98 630.86 486.03 629.79"/>
        <polyline class="cls-14" points="479.1 633.42 423.35 605.01 421.3 606.09 477.05 634.5 479.1 633.42"/>
        <polyline class="cls-14" points="472.28 637 416.52 608.6 414.47 609.67 470.23 638.08 472.28 637"/>
        <polyline class="cls-14" points="465.54 640.54 409.78 612.13 407.74 613.2 463.49 641.61 465.54 640.54"/>
        <polyline class="cls-14" points="458.61 644.17 402.86 615.77 400.81 616.84 456.57 645.25 458.61 644.17"/>
        <polyline class="cls-14" points="451.76 647.77 396.1 619.41 394.05 620.49 449.71 648.85 451.76 647.77"/>
        <polyline class="cls-13" points="537.57 616.93 533.92 615.07 447.87 660.22 378.43 624.84 375.01 626.63 448.11 663.87 537.57 616.93"/>
        <polyline class="cls-13" points="538.4 621.59 534.75 619.73 447.62 665.46 376.63 629.28 373.22 631.07 447.86 669.11 538.4 621.59"/>
      </g>
    </g>
  </g>
</svg>